<svg id="visual" viewBox="0 0 1920 1080" width="1920" height="1080" xmlns="http://www.w3.org/2000/svg" xmlns:xlink="http://www.w3.org/1999/xlink" version="1.1"><path d="M0 217L107 152L213 293L320 293L427 293L533 152L640 152L747 260L853 185L960 271L1067 195L1173 174L1280 336L1387 152L1493 195L1600 293L1707 141L1813 282L1920 271L1920 0L1813 0L1707 0L1600 0L1493 0L1387 0L1280 0L1173 0L1067 0L960 0L853 0L747 0L640 0L533 0L427 0L320 0L213 0L107 0L0 0Z" fill="#1e1f2e"></path><path d="M0 303L107 239L213 379L320 357L427 325L533 217L640 195L747 314L853 271L960 314L1067 249L1173 249L1280 379L1387 228L1493 239L1600 357L1707 228L1813 325L1920 357L1920 269L1813 280L1707 139L1600 291L1493 193L1387 150L1280 334L1173 172L1067 193L960 269L853 183L747 258L640 150L533 150L427 291L320 291L213 291L107 150L0 215Z" fill="#222239"></path><path d="M0 595L107 541L213 573L320 552L427 465L533 541L640 509L747 595L853 530L960 573L1067 627L1173 530L1280 573L1387 465L1493 509L1600 498L1707 552L1813 552L1920 584L1920 355L1813 323L1707 226L1600 355L1493 237L1387 226L1280 377L1173 247L1067 247L960 312L853 269L747 312L640 193L533 215L427 323L320 355L213 377L107 237L0 301Z" fill="#262543"></path><path d="M0 692L107 595L213 660L320 649L427 584L533 595L640 606L747 681L853 627L960 660L1067 681L1173 649L1280 681L1387 573L1493 617L1600 573L1707 671L1813 681L1920 638L1920 582L1813 550L1707 550L1600 496L1493 507L1387 463L1280 571L1173 528L1067 625L960 571L853 528L747 593L640 507L533 539L427 463L320 550L213 571L107 539L0 593Z" fill="#2b284e"></path><path d="M0 800L107 703L213 757L320 735L427 660L533 638L640 671L747 768L853 671L960 703L1067 800L1173 757L1280 768L1387 649L1493 725L1600 617L1707 725L1813 768L1920 714L1920 636L1813 679L1707 669L1600 571L1493 615L1387 571L1280 679L1173 647L1067 679L960 658L853 625L747 679L640 604L533 593L427 582L320 647L213 658L107 593L0 690Z" fill="#312a58"></path><path d="M0 876L107 789L213 833L320 789L427 757L533 735L640 768L747 811L853 757L960 789L1067 854L1173 833L1280 833L1387 746L1493 800L1600 681L1707 779L1813 822L1920 811L1920 712L1813 766L1707 723L1600 615L1493 723L1387 647L1280 766L1173 755L1067 798L960 701L853 669L747 766L640 669L533 636L427 658L320 733L213 755L107 701L0 798Z" fill="#382c62"></path><path d="M0 962L107 930L213 941L320 941L427 919L533 941L640 865L747 897L853 919L960 897L1067 951L1173 919L1280 941L1387 908L1493 897L1600 876L1707 876L1813 930L1920 930L1920 809L1813 820L1707 777L1600 679L1493 798L1387 744L1280 831L1173 831L1067 852L960 787L853 755L747 809L640 766L533 733L427 755L320 787L213 831L107 787L0 874Z" fill="#402d6c"></path><path d="M0 1005L107 973L213 1016L320 995L427 995L533 1016L640 930L747 951L853 984L960 962L1067 984L1173 973L1280 995L1387 962L1493 973L1600 951L1707 930L1813 1005L1920 984L1920 928L1813 928L1707 874L1600 874L1493 895L1387 906L1280 939L1173 917L1067 949L960 895L853 917L747 895L640 863L533 939L427 917L320 939L213 939L107 928L0 960Z" fill="#492e75"></path><path d="M0 1081L107 1081L213 1081L320 1081L427 1081L533 1081L640 1081L747 1081L853 1081L960 1081L1067 1081L1173 1081L1280 1081L1387 1081L1493 1081L1600 1081L1707 1081L1813 1081L1920 1081L1920 982L1813 1003L1707 928L1600 949L1493 971L1387 960L1280 993L1173 971L1067 982L960 960L853 982L747 949L640 928L533 1014L427 993L320 993L213 1014L107 971L0 1003Z" fill="#532e7e"></path></svg>